<?xml version="1.0" standalone="no"?><!DOCTYPE svg PUBLIC "-//W3C//DTD SVG 1.1//EN" "http://www.w3.org/Graphics/SVG/1.1/DTD/svg11.dtd"><svg class="icon" width="150px" height="150.00px" viewBox="0 0 1024 1024" version="1.1" xmlns="http://www.w3.org/2000/svg"><path fill="#2c2c2c" d="M260.736 149.205333l135.765333 135.765334a53.333333 53.333333 0 0 1 0 75.413333l-59.84 59.84c27.328 58.218667 62.122667 108.373333 104.405334 150.656 42.24 42.24 92.202667 76.864 150.037333 103.872l59.861333-59.882667a53.333333 53.333333 0 0 1 75.434667 0l137.728 137.728a53.333333 53.333333 0 0 1 0 75.434667L780.586667 911.573333a181.333333 181.333333 0 0 1-227.221334 23.68 1616.682667 1616.682667 0 0 1-261.333333-211.690666A1641.813333 1641.813333 0 0 1 78.442667 459.946667 181.333333 181.333333 0 0 1 101.994667 232.533333l83.306666-83.328a53.333333 53.333333 0 0 1 75.434667 0z m-37.717333 52.8L147.242667 277.76a117.333333 117.333333 0 0 0-15.253334 147.157333 1577.834667 1577.834667 0 0 0 205.312 253.376 1552.682667 1552.682667 0 0 0 251.008 203.328 117.333333 117.333333 0 0 0 147.029334-15.338666l75.989333-75.989334-122.645333-122.666666-57.578667 57.6a53.333333 53.333333 0 0 1-59.690667 10.88c-67.584-30.549333-126.186667-70.570667-175.616-119.978667-49.408-49.429333-89.6-108.181333-120.490666-176.128a53.333333 53.333333 0 0 1 10.837333-59.797333l57.557333-57.536-120.682666-120.682667zM512 160v-64c227.306667 0 412.032 182.314667 415.936 408.682667L928 512h-64c0-192.106667-153.92-348.288-345.173333-351.936L512 160v-64 64z m0 128c123.712 0 224 100.288 224 224h-64a160 160 0 0 0-160-160v-64z" /></svg>