<?xml version="1.0" standalone="no"?><!DOCTYPE svg PUBLIC "-//W3C//DTD SVG 1.1//EN" "http://www.w3.org/Graphics/SVG/1.1/DTD/svg11.dtd"><svg class="icon" width="150px" height="150.00px" viewBox="0 0 1024 1024" version="1.1" xmlns="http://www.w3.org/2000/svg"><path fill="#2c2c2c" d="M224 412.8V864h576V412.8c-10.346667 2.090667-21.034667 3.2-32 3.2a159.765333 159.765333 0 0 1-128-64 159.765333 159.765333 0 0 1-128 64 159.765333 159.765333 0 0 1-128-64 159.765333 159.765333 0 0 1-128 64 160.725333 160.725333 0 0 1-32-3.2zM160 384a159.765333 159.765333 0 0 1-64-128V96h832V256a159.765333 159.765333 0 0 1-64 128v544h-704V384z m512-128a96 96 0 1 0 192 0V160h-192V256z m-64 0V160h-192V256a96 96 0 1 0 192 0z m-256-96h-192V256a96 96 0 1 0 192 0V160zM661.333333 554.666667h64v128h-64v-128z" /></svg>